<svg width="28" height="29" viewBox="0 0 28 29" fill="none" xmlns="http://www.w3.org/2000/svg">
<path fill-rule="evenodd" clip-rule="evenodd" d="M22.6805 5.49986C21.548 4.32631 20.2025 3.39635 18.7216 2.76353C17.2406 2.1307 15.6534 1.80751 14.0514 1.81256C7.32812 1.81256 1.855 7.45283 1.85227 14.3868C1.84929 16.5947 2.41122 18.764 3.48086 20.6739L1.75 27.1876L8.2168 25.4391C10.0068 26.4434 12.0106 26.9691 14.0465 26.9684H14.0514C20.7741 26.9684 26.2467 21.3275 26.25 14.3941C26.2541 12.7406 25.9406 11.1026 25.3278 9.57569C24.715 8.04874 23.8151 6.66326 22.6805 5.49986V5.49986ZM14.0514 24.846H14.047C12.2322 24.8466 10.4503 24.3436 8.88672 23.3892L8.51648 23.1627L4.67906 24.2003L5.70336 20.3437L5.46219 19.9472C4.4474 18.2832 3.90974 16.3549 3.9118 14.3868C3.9118 8.62473 8.46234 3.93658 14.0552 3.93658C16.7382 3.93162 19.3132 5.03062 21.2139 6.99185C23.1146 8.95308 24.1853 11.6159 24.1905 14.3947C24.1883 20.1573 19.6399 24.846 14.0514 24.846V24.846ZM19.6126 17.0189C19.308 16.8614 17.8079 16.1013 17.5301 15.9965C17.2523 15.8917 17.0472 15.839 16.8443 16.154C16.6414 16.4689 16.0568 17.1735 15.8791 17.3859C15.7013 17.5983 15.5236 17.6215 15.219 17.4641C14.9144 17.3066 13.9316 16.9753 12.7673 15.9047C11.8612 15.0716 11.2498 14.043 11.072 13.7286C10.8943 13.4143 11.0529 13.2438 11.2055 13.0874C11.3427 12.9464 11.5101 12.7204 11.6627 12.5369C11.8152 12.3534 11.8661 12.222 11.9673 12.0124C12.0684 11.8028 12.0181 11.6193 11.9421 11.4624C11.8661 11.3055 11.2563 9.75867 11.0026 9.1294C10.7548 8.51654 10.5038 8.59981 10.3168 8.59018C10.1391 8.58112 9.93398 8.57885 9.73219 8.57885C9.57792 8.58301 9.42614 8.62006 9.28631 8.68769C9.14649 8.75533 9.02163 8.85209 8.91953 8.97193C8.64008 9.28686 7.85258 10.0481 7.85258 11.5933C7.85258 13.1384 8.94633 14.6337 9.09727 14.8433C9.2482 15.0529 11.2465 18.2265 14.3041 19.5875C14.8718 19.8394 15.4519 20.0602 16.042 20.2491C16.7721 20.4881 17.4366 20.4547 17.9616 20.3737C18.5473 20.2836 19.7663 19.6136 20.0195 18.8795C20.2727 18.1455 20.2732 17.5167 20.1972 17.3859C20.1212 17.2551 19.9177 17.1758 19.6126 17.0189V17.0189Z" fill="black"/>
</svg>
